<?xml version="1.0" encoding="UTF-8" standalone="no"?>
<!-- Created with Inkscape (http://www.inkscape.org/) -->

<svg
   width="512"
   height="512"
   viewBox="0 0 135.46666 135.46667"
   version="1.1"
   id="svg1926"
   inkscape:version="1.2.2 (b0a8486541, 2022-12-01)"
   sodipodi:docname="Target.svg"
   xmlns:inkscape="http://www.inkscape.org/namespaces/inkscape"
   xmlns:sodipodi="http://sodipodi.sourceforge.net/DTD/sodipodi-0.dtd"
   xmlns="http://www.w3.org/2000/svg"
   xmlns:svg="http://www.w3.org/2000/svg">
  <sodipodi:namedview
     id="namedview1928"
     pagecolor="#ffffff"
     bordercolor="#000000"
     borderopacity="0.25"
     inkscape:showpageshadow="2"
     inkscape:pageopacity="0.0"
     inkscape:pagecheckerboard="0"
     inkscape:deskcolor="#d1d1d1"
     inkscape:document-units="mm"
     showgrid="true"
     inkscape:zoom="0.75277076"
     inkscape:cx="156.75423"
     inkscape:cy="445.0226"
     inkscape:window-width="1844"
     inkscape:window-height="1011"
     inkscape:window-x="76"
     inkscape:window-y="32"
     inkscape:window-maximized="1"
     inkscape:current-layer="layer1">
    <inkscape:grid
       type="xygrid"
       id="grid2293" />
  </sodipodi:namedview>
  <defs
     id="defs1923" />
  <g
     inkscape:label="Layer 1"
     inkscape:groupmode="layer"
     id="layer1">
    <path
       style="fill:#ffffff;fill-opacity:0.98413587;stroke:none;stroke-width:5.02082"
       d="m 41.818622,237.45609 c 2.722296,-28.75558 9.852163,-53.77433 22.61991,-79.37344 C 75.560965,135.78238 87.581555,119.0501 104.97636,101.6553 140.47429,66.157362 187.57178,43.735561 237.45609,38.585388 l 8.30266,-0.857186 v 4.655259 c 0,4.244992 -0.38049,4.707452 -4.31739,5.247471 -23.32917,3.200038 -35.86673,5.796027 -48.95928,10.137361 C 129.79109,78.555882 82.172041,125.48075 60.564456,187.76286 c -4.552595,13.12248 -9.109761,34.62948 -10.811094,51.02165 -0.771168,7.43013 -0.901754,7.63845 -4.788213,7.63845 h -3.995423 z"
       id="path2918"
       transform="scale(0.26458333)" />
    <path
       style="fill:#ffffff;fill-opacity:0.98413587;stroke:none;stroke-width:5.02082"
       d="m 465.77201,240.77715 c -0.34418,-2.37456 -1.30784,-9.39861 -2.14144,-15.609 C 453.37584,148.77025 398.61716,83.059765 324.5547,58.276917 c -15.09405,-5.050782 -37.18264,-9.78938 -45.63241,-9.78938 -5.26134,0 -5.2666,-0.0053 -5.2666,-5.329402 v -5.329401 l 5.64581,0.759553 c 26.20615,3.525621 44.63059,8.294682 63.54,16.446973 27.31826,11.77755 49.49803,27.243074 71.20313,49.64857 34.24697,35.35208 56.32749,82.95582 59.73656,128.78698 l 0.86462,11.62372 h -4.124 c -3.63875,0 -4.19764,-0.50801 -4.7498,-4.31738 z"
       id="path2920"
       transform="scale(0.26458333)" />
    <path
       style="fill:#ffffff;fill-opacity:0.98413587;stroke:none;stroke-width:5.02082"
       d="m 274.98411,467.11861 c 0,-3.77061 0.36109,-4.0464 6.31002,-4.81943 63.85032,-8.29697 117.13605,-41.42982 151.69816,-94.32527 9.25475,-14.16388 16.37854,-29.34975 22.61585,-48.21043 4.68366,-14.16268 9.34084,-35.94329 9.34084,-43.68503 0,-2.64236 0.66967,-3.08698 4.64949,-3.08698 5.52405,0 5.43082,-0.84903 2.06709,18.82675 -16.01837,93.69739 -94.02818,167.31874 -189.043,178.40833 l -7.63845,0.89152 z"
       id="path2922"
       transform="scale(0.26458333)" />
    <path
       style="fill:#ffffff;fill-opacity:0.98413587;stroke:none;stroke-width:5.02082"
       d="M 225.16815,468.99495 C 133.57404,454.60973 60.474157,382.94917 44.554094,291.93716 41.637523,275.26367 41.733203,274.3199 46.340141,274.3199 c 3.741229,0 3.852477,0.20504 4.772494,8.79603 0.518086,4.83782 2.385533,14.75776 4.149883,22.04433 20.208939,83.4606 92.372292,147.16208 177.544082,156.72525 l 14.28057,1.60344 v 3.71898 c 0,3.51026 -0.31684,3.71159 -5.64581,3.58753 -3.10519,-0.0723 -10.42814,-0.88251 -16.27321,-1.80051 z"
       id="path2924"
       transform="scale(0.26458333)" />
    <path
       style="fill:#ffffff;fill-opacity:0.98413587;stroke:none;stroke-width:5.02082"
       d="m 7.970554,260.37143 v -8.63477 h 13.948469 13.94847 v 8.63477 8.63477 H 21.919023 7.970554 Z"
       id="path2926"
       transform="scale(0.26458333)" />
    <path
       style="fill:#ffffff;fill-opacity:0.98413587;stroke:none;stroke-width:5.02082"
       d="M 251.07245,19.926385 V 7.3063411 h 8.63477 8.63476 V 19.926385 32.546429 h -8.63476 -8.63477 z"
       id="path2928"
       transform="scale(0.26458333)" />
    <path
       style="fill:#ffffff;fill-opacity:0.98413587;stroke:none;stroke-width:5.02082"
       d="m 479.56166,259.043 v -8.63476 h 13.28426 13.28426 v 8.63476 8.63477 h -13.28426 -13.28426 z"
       id="path2930"
       transform="scale(0.26458333)" />
    <path
       style="fill:#ffffff;fill-opacity:0.98413587;stroke:none;stroke-width:5.02082"
       d="M 252.40088,490.85328 V 476.2406 h 8.63476 8.63477 v 14.61268 14.61268 h -8.63477 -8.63476 z"
       id="path2932"
       transform="scale(0.26458333)" />
    <path
       style="fill:#ffffff;fill-opacity:0.98413587;stroke:none;stroke-width:5.02082"
       d="m 252.40088,455.65 c 0,-3.20184 0.30996,-3.32106 8.63476,-3.32106 8.3248,0 8.63477,0.11922 8.63477,3.32106 0,3.20185 -0.30997,3.32107 -8.63477,3.32107 -8.3248,0 -8.63476,-0.11922 -8.63476,-3.32107 z"
       id="path2934"
       transform="scale(0.26458333)" />
    <path
       style="fill:#ffffff;fill-opacity:0.98413587;stroke:none;stroke-width:5.02082"
       d="m 452.99315,259.043 v -8.63476 h 3.98528 3.98527 v 8.63476 8.63477 h -3.98527 -3.98528 z"
       id="path2936"
       transform="scale(0.26458333)" />
    <path
       style="fill:#ffffff;fill-opacity:0.98413587;stroke:none;stroke-width:5.02082"
       d="m 251.07245,55.793878 c 0,-3.201847 0.30997,-3.321064 8.63477,-3.321064 8.3248,0 8.63476,0.119217 8.63476,3.321064 0,3.201846 -0.30996,3.321064 -8.63476,3.321064 -8.3248,0 -8.63477,-0.119218 -8.63477,-3.321064 z"
       id="path2938"
       transform="scale(0.26458333)" />
    <path
       style="fill:#ffffff;fill-opacity:0.98413587;stroke:none;stroke-width:5.02082"
       d="m 54.465452,260.37143 c 0,-7.74915 0.272498,-8.63477 2.656851,-8.63477 2.384354,0 2.656852,0.88562 2.656852,8.63477 0,7.74915 -0.272498,8.63477 -2.656852,8.63477 -2.384353,0 -2.656851,-0.88562 -2.656851,-8.63477 z"
       id="path2942"
       transform="scale(0.26458333)" />
  </g>
</svg>
