<?xml version="1.0" encoding="UTF-8" standalone="no"?>
<!-- Created with Inkscape (http://www.inkscape.org/) -->

<svg
   width="128"
   height="128"
   viewBox="0 0 33.866666 33.866666"
   version="1.1"
   id="svg1"
   inkscape:version="1.3 (0e150ed6c4, 2023-07-21)"
   sodipodi:docname="2.svg"
   inkscape:export-filename="2.png"
   inkscape:export-xdpi="96"
   inkscape:export-ydpi="96"
   xmlns:inkscape="http://www.inkscape.org/namespaces/inkscape"
   xmlns:sodipodi="http://sodipodi.sourceforge.net/DTD/sodipodi-0.dtd"
   xmlns="http://www.w3.org/2000/svg"
   xmlns:svg="http://www.w3.org/2000/svg">
  <sodipodi:namedview
     id="namedview1"
     pagecolor="#ffffff"
     bordercolor="#000000"
     borderopacity="0.25"
     inkscape:showpageshadow="2"
     inkscape:pageopacity="0.0"
     inkscape:pagecheckerboard="0"
     inkscape:deskcolor="#d1d1d1"
     inkscape:document-units="mm"
     inkscape:zoom="5.7941077"
     inkscape:cx="62.822443"
     inkscape:cy="45.132057"
     inkscape:window-width="1828"
     inkscape:window-height="1027"
     inkscape:window-x="2004"
     inkscape:window-y="8"
     inkscape:window-maximized="0"
     inkscape:current-layer="layer1" />
  <defs
     id="defs1" />
  <g
     inkscape:label="Layer 1"
     inkscape:groupmode="layer"
     id="layer1">
    <circle
       style="fill:#3d793d;fill-opacity:0;stroke-width:2.557;stroke-linecap:round;stroke-linejoin:round"
       id="path1"
       cx="16.964882"
       cy="16.595417"
       r="16.018196" />
    <text
       xml:space="preserve"
       style="font-size:31.0019px;line-height:0.664322px;font-family:'Space Quest';-inkscape-font-specification:'Space Quest';text-align:center;letter-spacing:7.89713px;text-anchor:middle;fill:#3d793d;fill-opacity:1;stroke:#000000;stroke-width:0.784634;stroke-linecap:round;stroke-linejoin:round;stroke-dasharray:none;stroke-opacity:0.296197"
       x="17.497572"
       y="26.030563"
       id="text7"><tspan
         sodipodi:role="line"
         id="tspan7"
         style="fill:#3d793d;fill-opacity:1;stroke:#000000;stroke-width:0.784634;stroke-dasharray:none;stroke-opacity:0.296197"
         x="21.446136"
         y="26.030563">2</tspan></text>
    <circle
       style="fill:#3d793d;fill-opacity:1;stroke-width:2.557;stroke-linecap:round;stroke-linejoin:round"
       id="path3"
       cx="28.268116"
       cy="17.514643"
       r="1.9481871" />
    <circle
       style="fill:#3d793d;fill-opacity:1;stroke-width:2.557;stroke-linecap:round;stroke-linejoin:round"
       id="path4"
       cx="26.491741"
       cy="28.315323"
       r="1.7235701" />
    <circle
       style="fill:#3d793d;fill-opacity:1;stroke-width:2.557;stroke-linecap:round;stroke-linejoin:round"
       id="path5"
       cx="30.476601"
       cy="3.062057"
       r="1.9280251" />
    <path
       style="fill:#3d793d;fill-opacity:1;stroke-width:1.66794;stroke-linecap:round;stroke-linejoin:round"
       d="M 59.802133,123.05487 C 42.637341,121.69348 27.457444,113.6643 16.767189,100.29217 9.7483386,91.512499 5.4385489,81.110577 4.0313165,69.553418 3.6110586,66.101972 3.6131331,59.182785 4.0354303,55.832583 6.0307362,40.003264 13.29518,26.538571 25.346486,16.332407 39.360461,4.4640715 58.826433,-0.32397378 76.974751,3.6334021 99.404255,8.5243225 117.3029,25.88689 122.7793,48.066072 c 1.27048,5.145395 1.73615,9.145486 1.7279,14.842665 -0.0118,8.144232 -1.28728,14.811749 -4.25908,22.263998 -2.77536,6.959672 -6.50709,12.84752 -11.85737,18.708315 -1.78425,1.9545 -1.80878,1.97338 -1.91366,1.47336 -0.1259,-0.60022 -0.87241,-2.03978 -1.40219,-2.70397 l -0.37614,-0.47157 1.97899,-2.03097 c 8.65232,-8.879668 14.10383,-20.399015 15.62224,-33.010729 0.40692,-3.379786 0.40924,-9.713522 0.005,-13.030479 -1.20724,-9.900546 -4.60072,-18.677434 -10.33412,-26.728169 -3.16924,-4.45018 -7.76126,-9.173367 -11.87055,-12.209627 C 91.637026,8.9157253 83.282961,5.4914718 72.918906,4.027577 69.773169,3.58325 61.272104,3.5856195 58.248831,4.031666 47.358888,5.6383423 38.172174,9.5757966 29.857919,16.200099 27.856633,17.794604 23.2677,22.336212 21.638182,24.335067 15.180211,32.256765 11.071107,41.268941 9.4093235,51.155668 8.7696198,54.961563 8.5701073,57.975284 8.6826696,62.132086 c 0.140156,5.175808 0.707551,8.982444 2.0860304,13.995111 1.834379,6.670489 5.852024,14.52368 10.19026,19.918653 9.661934,12.01545 23.041501,19.43005 38.325405,21.23892 2.881882,0.34107 9.112979,0.39023 11.90865,0.094 7.626013,-0.80819 15.311252,-3.1508 21.453833,-6.53954 1.559483,-0.86034 1.591018,-0.86936 1.783217,-0.51023 0.354829,0.663 1.768238,2.05331 2.431334,2.39159 0.358302,0.1828 0.651458,0.36465 0.651458,0.40413 0,0.11189 -3.529416,2.20516 -5.350263,3.17319 -4.74044,2.5202 -10.632239,4.6008 -16.223378,5.72904 -4.602448,0.92873 -11.693181,1.38043 -16.137083,1.02797 z"
       id="path6"
       transform="scale(0.26458333)" />
    <path
       style="fill:#3d793d;fill-opacity:0.13710745;stroke-width:1.66794;stroke-linecap:round;stroke-linejoin:round"
       d="m 98.375803,113.2019 -0.431473,-0.18714 0.431473,-0.28647 c 1.393247,-0.92504 4.662337,-3.50647 6.280287,-4.95922 l 1.87926,-1.68739 -0.0793,1.36788 c -0.13466,2.32245 -1.37605,4.19775 -3.50663,5.29726 -0.89179,0.46023 -1.25113,0.54189 -2.58883,0.58831 -0.865306,0.03 -1.744415,-0.029 -1.984777,-0.13323 z"
       id="path7"
       transform="scale(0.26458333)" />
  </g>
</svg>
