<?xml version="1.0" encoding="UTF-8" standalone="no"?>
<!-- Created with Inkscape (http://www.inkscape.org/) -->

<svg
   width="512"
   height="512"
   viewBox="0 0 135.46666 135.46667"
   version="1.1"
   id="svg1"
   inkscape:version="1.3 (0e150ed6c4, 2023-07-21)"
   sodipodi:docname="Defender.svg"
   xmlns:inkscape="http://www.inkscape.org/namespaces/inkscape"
   xmlns:sodipodi="http://sodipodi.sourceforge.net/DTD/sodipodi-0.dtd"
   xmlns="http://www.w3.org/2000/svg"
   xmlns:svg="http://www.w3.org/2000/svg">
  <sodipodi:namedview
     id="namedview1"
     pagecolor="#ffffff"
     bordercolor="#000000"
     borderopacity="0.25"
     inkscape:showpageshadow="2"
     inkscape:pageopacity="0.0"
     inkscape:pagecheckerboard="0"
     inkscape:deskcolor="#d1d1d1"
     inkscape:document-units="mm"
     inkscape:zoom="1.0242632"
     inkscape:cx="464.72429"
     inkscape:cy="419.32581"
     inkscape:window-width="1844"
     inkscape:window-height="1011"
     inkscape:window-x="76"
     inkscape:window-y="32"
     inkscape:window-maximized="1"
     inkscape:current-layer="layer1" />
  <defs
     id="defs1" />
  <g
     inkscape:label="Layer 1"
     inkscape:groupmode="layer"
     id="layer1">
    <path
       style="fill:#373737;fill-opacity:0.984136;stroke:#b6b62b;stroke-width:1.3284;stroke-dasharray:0.664197, 0.664197;stroke-dashoffset:0"
       d="M 59.048736,124.3185 C 34.148223,120.91228 14.513829,102.569 9.0884817,77.643525 8.0370407,72.81293 7.9411707,60.114174 8.9213887,55.510757 12.970992,36.492516 24.212517,21.792423 40.971056,13.600691 57.118699,5.7075694 75.49151,5.6639094 91.891692,13.479688 c 18.859698,8.987896 31.818788,28.142815 32.982128,48.751046 0.64235,11.379185 -1.35336,20.960713 -6.4265,30.854113 -6.65373,12.975783 -18.70959,23.480503 -32.48756,28.307673 -6.335195,2.21955 -10.731462,2.98189 -18.046008,3.12928 -3.537314,0.0712 -7.526573,-0.0202 -8.865016,-0.2033 z m 16.860914,-5.69798 c 12.119616,-1.85562 22.884553,-7.3764 31.31595,-16.06034 8.6587,-8.918062 13.72214,-19.497287 15.28873,-31.943372 0.57816,-4.593282 0.24822,-12.885552 -0.6895,-17.329098 C 117.23807,31.552593 100.99822,15.114796 79.333747,10.278662 74.277534,9.1499714 64.216074,8.9699064 58.701089,9.9094114 33.63613,14.179352 14.912494,34.693416 13.033013,59.944445 c -1.4887,20.00084 7.598434,38.804065 24.09751,49.862915 7.096777,4.75676 16.179422,8.1653 24.177923,9.0735 3.118611,0.35409 11.572593,0.20336 14.601204,-0.26034 z"
       id="path6" />
    <path
       style="fill:#373737;fill-opacity:0.984136;stroke:#b6b62b;stroke-width:1.49576;stroke-dasharray:0.74788, 0.74788"
       d="M 34.318059,26.816311 C 30.179482,41.828197 27.576546,57.060837 29.709518,72.974285 34.762901,93.353875 49.853326,103.91582 65.44764,112.8642 L 66.565625,35.831329 C 56.785261,38.647096 46.02342,35.566069 34.318059,26.816311 Z"
       id="path1"
       sodipodi:nodetypes="ccccc" />
    <path
       style="fill:#7d7d7d;fill-opacity:0.984136;stroke:#b6b62b;stroke-width:1.49576;stroke-dasharray:0.74788, 0.74788"
       d="m 100.48322,26.966601 c 4.13858,15.011886 6.74151,30.244527 4.60854,46.157975 -5.05338,20.379591 -20.143806,30.941534 -35.73812,39.889914 L 68.235655,35.98162 c 9.780364,2.815767 20.542205,-0.265261 32.247565,-9.015019 z"
       id="path1-3"
       sodipodi:nodetypes="ccccc" />
    <circle
       style="fill:#373737;fill-opacity:0.984136;stroke:#b6b62b;stroke-width:0.743;stroke-opacity:1;stroke-dasharray:none"
       id="path4"
       cx="85.633888"
       cy="54.030678"
       r="8.7689152" />
    <path
       style="fill:#373737;fill-opacity:0.984136;stroke:#b6b62b;stroke-width:1.5322;stroke-dasharray:36.773, 1.5322;stroke-dashoffset:0"
       d="M 76.355117,63.334097 20.746754,118.74576"
       id="path5" />
    <path
       style="fill:#373737;fill-opacity:0.984136;stroke:#b6b62b;stroke-width:1.52379;stroke-dasharray:0.761893, 0.761893;stroke-dashoffset:0"
       d="M 80.956856,64.638861 50.49169,96.206701"
       id="path5-7" />
    <path
       style="fill:#373737;fill-opacity:0.984136;stroke:#b6b62b;stroke-width:1.70227;stroke-dasharray:0.851132, 0.851132;stroke-dashoffset:0"
       d="M 75.591449,57.27605 35.745217,95.918511"
       id="path5-6" />
  </g>
</svg>
