<?xml version="1.0" encoding="UTF-8" standalone="no"?>
<!-- Created with Inkscape (http://www.inkscape.org/) -->

<svg
   width="512"
   height="512"
   viewBox="0 0 135.46666 135.46667"
   version="1.1"
   id="svg1"
   inkscape:version="1.3 (0e150ed6c4, 2023-07-21)"
   sodipodi:docname="Midfield.svg"
   xmlns:inkscape="http://www.inkscape.org/namespaces/inkscape"
   xmlns:sodipodi="http://sodipodi.sourceforge.net/DTD/sodipodi-0.dtd"
   xmlns="http://www.w3.org/2000/svg"
   xmlns:svg="http://www.w3.org/2000/svg">
  <sodipodi:namedview
     id="namedview1"
     pagecolor="#ffffff"
     bordercolor="#000000"
     borderopacity="0.25"
     inkscape:showpageshadow="2"
     inkscape:pageopacity="0.0"
     inkscape:pagecheckerboard="0"
     inkscape:deskcolor="#d1d1d1"
     inkscape:document-units="mm"
     inkscape:zoom="1.4485269"
     inkscape:cx="136.69059"
     inkscape:cy="328.26452"
     inkscape:window-width="1844"
     inkscape:window-height="1011"
     inkscape:window-x="76"
     inkscape:window-y="32"
     inkscape:window-maximized="1"
     inkscape:current-layer="layer1" />
  <defs
     id="defs1" />
  <g
     inkscape:label="Layer 1"
     inkscape:groupmode="layer"
     id="layer1">
    <circle
       style="fill:#373737;fill-opacity:0.984136;stroke:none;stroke-width:4.94324"
       id="path4"
       cx="96.061371"
       cy="33.980705"
       r="8.7689152" />
    <g
       id="g6"
       transform="matrix(1.2610725,0,0,1.2566116,-28.381491,-6.1335787)">
      <path
         sodipodi:type="star"
         style="fill:#373737;fill-opacity:0.984136;stroke:#b6b62b;stroke-width:3.41;stroke-opacity:1"
         id="path3-2"
         inkscape:flatsided="true"
         sodipodi:sides="3"
         sodipodi:cx="48.847858"
         sodipodi:cy="55.214233"
         sodipodi:r1="10.959115"
         sodipodi:r2="5.4795575"
         sodipodi:arg1="1.2172325"
         sodipodi:arg2="2.26443"
         inkscape:rounded="0"
         inkscape:randomized="0"
         d="M 52.64238,65.495469 38.046786,53.359767 55.854409,46.787464 Z"
         inkscape:transform-center-x="1.0921461"
         inkscape:transform-center-y="0.53375523"
         transform="matrix(0.57564345,0,0,0.57564345,38.740277,32.333362)" />
      <path
         style="fill:#373737;fill-opacity:0.984136;stroke:#b6b62b;stroke-width:0.91;stroke-dasharray:21.84, 0.91;stroke-dashoffset:0"
         d="M 61.388835,70.235574 28.420633,103.20378"
         id="path5" />
      <path
         style="fill:#373737;fill-opacity:0.984136;stroke:#b6b62b;stroke-width:0.905;stroke-dasharray:0.4525, 0.4525;stroke-dashoffset:0"
         d="M 65.583637,72.084378 47.521934,90.866259"
         id="path5-7" />
      <path
         style="fill:#373737;fill-opacity:0.984136;stroke:#b6b62b;stroke-width:1.011;stroke-dasharray:0.5055, 0.5055;stroke-dashoffset:0"
         d="M 59.946067,66.328811 36.322666,89.31987"
         id="path5-6" />
    </g>
    <path
       style="fill:#373737;fill-opacity:0.984136;stroke:#b6b62b;stroke-width:1.3284;stroke-dasharray:0.664197, 0.664197;stroke-dashoffset:0"
       d="M 60.152316,125.38695 C 35.251803,121.98073 15.617409,103.63745 10.192062,78.711977 9.1406209,73.881382 9.0447506,61.182626 10.024969,56.579209 14.074572,37.560968 25.316097,22.860875 42.074636,14.669143 58.222279,6.7760214 76.59509,6.7323614 92.995272,14.54814 c 18.859698,8.987896 31.818788,28.142815 32.982128,48.751046 0.64235,11.379185 -1.35336,20.960713 -6.4265,30.854113 -6.65373,12.975781 -18.70959,23.480501 -32.48756,28.307671 -6.335195,2.21955 -10.731462,2.98189 -18.046008,3.12928 -3.537314,0.0712 -7.526573,-0.0202 -8.865016,-0.2033 z m 16.860914,-5.69798 c 12.119616,-1.85562 22.884553,-7.3764 31.31595,-16.06034 8.6587,-8.91806 13.72214,-19.497285 15.28873,-31.94337 0.57816,-4.593282 0.24822,-12.885552 -0.6895,-17.329098 C 118.34165,32.621045 102.1018,16.183248 80.437327,11.347114 75.381114,10.218423 65.319654,10.038358 59.804669,10.977863 34.73971,15.247804 16.016074,35.761868 14.136593,61.012897 c -1.4887,20.00084 7.598434,38.804065 24.09751,49.862913 7.096777,4.75676 16.179422,8.1653 24.177923,9.0735 3.118611,0.35409 11.572593,0.20336 14.601204,-0.26034 z"
       id="path6" />
    <g
       id="g1"
       transform="matrix(1.0215919,0,0,1.0559806,-9.7602029,-17.060891)">
      <path
         style="fill:#373737;fill-opacity:0.984136;stroke:#b6b62b;stroke-width:0.91;stroke-dasharray:21.84, 0.91;stroke-dashoffset:0"
         d="m 109.67817,82.926709 23.1994,40.490681"
         id="path5-1"
         transform="matrix(1.083163,0,0,1.0793314,-16.817319,8.1404137)" />
      <path
         style="fill:#373737;fill-opacity:0.984136;stroke:#b6b62b;stroke-width:0.905;stroke-dasharray:0.4525, 0.4525;stroke-dashoffset:0"
         d="m 112.54336,79.338965 13.40301,22.369305"
         id="path5-7-9"
         transform="matrix(1.083163,0,0,1.0793314,-16.817319,8.1404137)" />
      <path
         style="fill:#373737;fill-opacity:0.984136;stroke:#b6b62b;stroke-width:1.011;stroke-dasharray:0.5055, 0.5055;stroke-dashoffset:0"
         d="m 105.54446,83.31412 16.01492,28.84998"
         id="path5-6-4"
         transform="matrix(1.083163,0,0,1.0793314,-16.817319,8.1404137)" />
      <path
         sodipodi:type="star"
         style="fill:#373737;fill-opacity:0.984136;stroke:#b6b62b;stroke-width:1.011;stroke-dasharray:0.5055, 0.5055"
         id="path1"
         inkscape:flatsided="true"
         sodipodi:sides="5"
         sodipodi:cx="57.601784"
         sodipodi:cy="35.774971"
         sodipodi:r1="9.7927713"
         sodipodi:r2="7.9225183"
         sodipodi:arg1="0.26179939"
         sodipodi:arg2="0.89011792"
         inkscape:rounded="0"
         inkscape:randomized="0"
         d="m 67.060874,38.309527 -8.946576,7.244795 -9.654854,-6.269936 2.979549,-11.119828 11.496316,-0.602496 z"
         inkscape:transform-center-x="0.32059486"
         inkscape:transform-center-y="0.6249589"
         transform="rotate(9.0814422,-165.12798,251.05978)" />
      <path
         sodipodi:type="star"
         style="fill:#373737;fill-opacity:0.984136;stroke:#b6b62b;stroke-width:1.011;stroke-dasharray:0.5055, 0.5055"
         id="path1-1"
         inkscape:flatsided="true"
         sodipodi:sides="5"
         sodipodi:cx="57.601784"
         sodipodi:cy="35.774971"
         sodipodi:r1="9.7927713"
         sodipodi:r2="7.9225183"
         sodipodi:arg1="0.26179939"
         sodipodi:arg2="0.89011792"
         inkscape:rounded="0"
         inkscape:randomized="0"
         d="m 67.060874,38.309527 -8.946576,7.244795 -9.654854,-6.269936 2.979549,-11.119828 11.496316,-0.602496 z"
         inkscape:transform-center-x="-0.17859292"
         inkscape:transform-center-y="-0.76364887"
         transform="rotate(42.383274,10.220641,111.94681)" />
    </g>
  </g>
</svg>
